<svg width="400" height="63" viewBox="0 0 400 63" fill="none" xmlns="http://www.w3.org/2000/svg">
<path d="M28.9706 42.0371L25.2641 48.7952L18.5061 52.4929L25.2641 56.1993L28.9618 62.9574L32.6683 56.1993L39.4264 52.5016L32.6683 48.7952L28.9706 42.0371Z" fill="#1B1B1A"/>
<path d="M10.8094 0.043457H0.336151L0.410367 10.5865H10.8836L10.8094 0.043457Z" fill="#1B1B1A"/>
<path d="M43.7353 17.3491C40.1641 12.5207 37.8722 6.83225 37.1169 0.89931L37.0121 0.0742188H31.7777L31.8999 1.12633C32.7076 8.02845 35.3183 14.6555 39.4394 20.2829C43.4908 25.8098 48.9042 30.2541 55.0947 33.1398L55.9373 33.5327L56.3433 32.6945C56.8366 31.6773 57.2994 30.647 57.7229 29.6298L58.0721 28.7916L57.2514 28.4074C51.9209 25.919 47.2453 22.0903 43.7309 17.3404H43.7353V17.3491Z" fill="#1B1B1A"/>
<path d="M26.5651 1.05651L26.6873 0H21.4529L21.3481 0.825118C20.5841 6.82791 18.2529 12.5688 14.6075 17.4365C11.0277 22.2256 6.26473 26.05 0.838208 28.5078L0 28.8876L0.357985 29.7346C0.781455 30.7474 1.25295 31.7777 1.74627 32.7949L2.15227 33.62L2.99048 33.2402C15.8954 27.3946 24.928 15.0616 26.5695 1.05651H26.5651Z" fill="#1B1B1A"/>
<path d="M7.4653 42.8619L8.01974 43.5255C8.71825 44.3594 9.46914 45.2063 10.255 46.0489L10.9229 46.7605L29.25 28.4465L47.5596 46.7474L48.2276 46.0358C48.9915 45.2194 49.7468 44.3725 50.4628 43.5124L51.0172 42.8488L29.2456 21.0903L7.4653 42.8576H7.46094L7.4653 42.8619Z" fill="#1B1B1A"/>
<path d="M52.8115 0.135254C49.9345 0.135254 47.612 2.47526 47.6294 5.35223V5.4221C47.6513 8.26851 49.9651 10.5648 52.8115 10.5648C55.6885 10.5648 58.011 8.22484 57.9935 5.34786V5.27802C57.9717 2.43161 55.6579 0.135254 52.8115 0.135254Z" fill="#1B1B1A"/>
<path d="M101.31 36.3617C100.554 38.872 99.1967 40.819 97.2758 42.1375C95.3506 43.4603 92.9713 44.1326 90.2034 44.1326C87.6452 44.1326 85.3706 43.5126 83.441 42.2903C81.5114 41.0679 80.0009 39.2954 78.9487 37.0122C77.8879 34.7202 77.3509 31.9436 77.3509 28.7698C77.3509 25.596 77.8966 22.7801 78.9749 20.5012C80.0445 18.2398 81.5725 16.4717 83.5196 15.2493C85.4667 14.0269 87.7543 13.4026 90.3082 13.4026C93.1066 13.4026 95.3942 14.0182 97.1099 15.2362C98.8213 16.4542 100.092 18.2747 100.882 20.6497L101.004 21.012L104.239 19.4927L104.143 19.2046C103.488 17.2837 102.51 15.6291 101.235 14.302C99.9607 12.9704 98.3803 11.9576 96.5424 11.2809C94.7132 10.613 92.5653 10.2725 90.151 10.2725C86.8986 10.2725 84.0086 11.0365 81.5638 12.5382C79.1146 14.0444 77.1937 16.201 75.8535 18.9514C74.522 21.6931 73.8453 24.9935 73.8453 28.7654C73.8453 32.5374 74.5307 35.8422 75.884 38.5794C77.2418 41.3342 79.1714 43.4908 81.6162 44.9926C84.0609 46.4988 86.951 47.2584 90.2034 47.2584C92.5478 47.2584 94.7001 46.8742 96.6035 46.1102C98.5113 45.3462 100.166 44.2243 101.532 42.7705C102.894 41.3211 103.933 39.5704 104.623 37.5753L104.728 37.2654L101.41 36.0037L101.305 36.3486L101.31 36.3617Z" fill="#1B1B1A"/>
<path d="M137.078 26.8835H115.961V10.8091H112.617V46.7342H115.961V30.0704H137.078V46.7342H140.422V10.8091H137.078V26.8835Z" fill="#1B1B1A"/>
<path d="M165.424 10.8091H161.813L147.446 46.7342H151.004L163.595 14.6858L176.233 46.7342H179.791L165.507 11.023L165.424 10.8091Z" fill="#1B1B1A"/>
<path d="M190.138 10.8091H186.794V46.7342H190.138V10.8091Z" fill="#1B1B1A"/>
<path d="M225.317 39.0855L225.391 42.0411L223.369 38.5704L204.732 10.9575L204.632 10.8091H200.751V46.7342H203.99V18.449L203.877 15.441L205.881 18.9205L224.675 46.7342H228.503V10.8091H225.317V39.0855Z" fill="#1B1B1A"/>
<path d="M263.001 36.3617C262.246 38.872 260.888 40.8147 258.967 42.1375C257.042 43.4603 254.663 44.1326 251.895 44.1326C249.336 44.1326 247.062 43.5126 245.132 42.2903C243.203 41.0679 241.692 39.2954 240.64 37.0122C239.579 34.7202 239.042 31.9436 239.042 28.7698C239.042 25.596 239.588 22.7801 240.666 20.5012C241.736 18.2398 243.268 16.4717 245.215 15.2493C247.162 14.0269 249.446 13.4026 252.004 13.4026C254.802 13.4026 257.09 14.0182 258.806 15.2362C260.517 16.4542 261.787 18.2747 262.577 20.6497L262.7 21.012L265.935 19.4927L265.839 19.2046C265.184 17.2793 264.206 15.6291 262.931 14.302C261.656 12.9704 260.076 11.9576 258.238 11.2809C256.409 10.613 254.261 10.2725 251.847 10.2725C248.594 10.2725 245.704 11.0365 243.259 12.5382C240.81 14.0444 238.889 16.201 237.553 18.9514C236.218 21.6887 235.545 24.9935 235.545 28.7654C235.545 32.5374 236.231 35.8422 237.584 38.5794C238.942 41.3342 240.871 43.4908 243.316 44.9926C245.761 46.4988 248.651 47.2584 251.903 47.2584C254.248 47.2584 256.4 46.8742 258.303 46.1102C260.211 45.3462 261.87 44.2243 263.232 42.7705C264.594 41.3211 265.633 39.5704 266.323 37.5753L266.428 37.2654L263.11 36.0037L263.005 36.3486L263.001 36.3617Z" fill="#1B1B1A"/>
<path d="M297.974 26.2725H281.315V29.4594H297.974V26.2725Z" fill="#1B1B1A"/>
<path d="M298.45 42.9888H276.452V46.1233H298.45V42.9888Z" fill="#1B1B1A"/>
<path d="M297.595 10.1982H276.452V13.3328H297.595V10.1982Z" fill="#1B1B1A"/>
<path d="M329.726 28.6297C331.9 26.8442 333 24.3208 333 21.1339C333 17.947 331.909 15.4018 329.756 13.5594C327.622 11.7346 324.718 10.8091 321.125 10.8091H307.701V46.7342H311.049V31.4587H320.898L321.029 31.3801L331.197 46.7342H335.157L324.766 30.9348C326.705 30.5201 328.364 29.7517 329.721 28.6341L329.726 28.6297ZM311.049 13.9393H321.073C323.823 13.9393 325.95 14.5679 327.395 15.8078C328.822 17.0345 329.547 18.8245 329.547 21.1339C329.547 23.4433 328.822 25.2202 327.399 26.4295C325.954 27.6518 323.828 28.2718 321.073 28.2718H311.049V13.9393Z" fill="#1B1B1A"/>
<path d="M337.855 13.9436H350.725V46.7342H354.069V13.9436H366.943V10.8091H337.855V13.9436Z" fill="#1B1B1A"/>
<path d="M397.791 31.4154C396.346 29.9878 393.836 28.8789 390.334 28.1193L383.445 26.6262C380.638 26.0019 378.713 25.1638 377.713 24.1291C376.731 23.1119 376.233 21.8371 376.233 20.331C376.233 19.0562 376.591 17.8905 377.294 16.8646C378.001 15.8343 379.071 14.9961 380.468 14.3631C381.878 13.7257 383.629 13.4026 385.667 13.4026C388.335 13.4026 390.601 13.944 392.412 15.0136C394.207 16.0744 395.626 17.8338 396.625 20.2436L396.796 20.6497L399.598 18.5148L399.489 18.2704C398.289 15.5811 396.525 13.5554 394.25 12.2414C391.985 10.936 389.169 10.2725 385.886 10.2725C383.21 10.2725 380.861 10.7527 378.905 11.6957C376.936 12.643 375.399 13.9134 374.339 15.4676C373.273 17.0305 372.732 18.7768 372.732 20.6497C372.732 22.1602 373.059 23.5354 373.706 24.7359C374.356 25.9452 375.413 26.9842 376.849 27.8312C378.259 28.665 380.127 29.3417 382.393 29.8481L389.662 31.4503C392.255 31.9698 394.076 32.7295 395.071 33.7074C396.062 34.6853 396.547 35.8465 396.547 37.261C396.547 38.6755 396.132 39.9983 395.316 40.998C394.486 42.0152 393.303 42.7967 391.806 43.3206C390.282 43.8576 388.523 44.1282 386.576 44.1282C384.524 44.1282 382.638 43.8314 380.974 43.2376C379.32 42.6526 377.918 41.7708 376.805 40.6226C375.692 39.4744 374.884 38.073 374.404 36.4621L374.264 35.9906L371.331 38.2608L371.414 38.4921C372.068 40.317 373.107 41.8973 374.491 43.1896C375.871 44.4775 377.591 45.4903 379.604 46.1975C381.603 46.9004 383.917 47.2584 386.471 47.2584C389.025 47.2584 391.496 46.8349 393.491 46.0054C395.495 45.1672 397.097 43.9623 398.249 42.4256C399.411 40.8758 400 39.0859 400 37.0951C400 34.7682 399.258 32.856 397.791 31.4066V31.4154Z" fill="#1B1B1A"/>
</svg>
